<mxfile host="65bd71144e">
    <diagram name="ページ1" id="MWcrBTppjYFNyf3oRTgG">
        <mxGraphModel dx="522" dy="318" grid="1" gridSize="10" guides="1" tooltips="1" connect="1" arrows="1" fold="1" page="1" pageScale="1" pageWidth="827" pageHeight="1169" math="0" shadow="0">
            <root>
                <mxCell id="0"/>
                <mxCell id="1" parent="0"/>
                <mxCell id="gTGuWwU5sjEZYZMLUVI3-5" value="" style="group" parent="1" vertex="1" connectable="0">
                    <mxGeometry x="140" y="120" width="45" height="140" as="geometry"/>
                </mxCell>
                <mxCell id="gTGuWwU5sjEZYZMLUVI3-1" value="" style="ellipse;whiteSpace=wrap;html=1;aspect=fixed;" parent="gTGuWwU5sjEZYZMLUVI3-5" vertex="1">
                    <mxGeometry x="7.5" width="30" height="30" as="geometry"/>
                </mxCell>
                <mxCell id="gTGuWwU5sjEZYZMLUVI3-2" value="" style="endArrow=none;html=1;rounded=0;" parent="gTGuWwU5sjEZYZMLUVI3-5" edge="1">
                    <mxGeometry width="50" height="50" relative="1" as="geometry">
                        <mxPoint y="44.21052631578947" as="sourcePoint"/>
                        <mxPoint x="45" y="44.21052631578947" as="targetPoint"/>
                    </mxGeometry>
                </mxCell>
                <mxCell id="gTGuWwU5sjEZYZMLUVI3-3" value="" style="endArrow=none;html=1;rounded=0;" parent="gTGuWwU5sjEZYZMLUVI3-5" edge="1">
                    <mxGeometry width="50" height="50" relative="1" as="geometry">
                        <mxPoint x="22.25" y="88.42105263157895" as="sourcePoint"/>
                        <mxPoint x="22.25" y="29.473684210526315" as="targetPoint"/>
                    </mxGeometry>
                </mxCell>
                <mxCell id="gTGuWwU5sjEZYZMLUVI3-4" value="" style="endArrow=none;html=1;rounded=0;" parent="gTGuWwU5sjEZYZMLUVI3-5" edge="1">
                    <mxGeometry width="50" height="50" relative="1" as="geometry">
                        <mxPoint x="2.5" y="140" as="sourcePoint"/>
                        <mxPoint x="42.5" y="140" as="targetPoint"/>
                        <Array as="points">
                            <mxPoint x="22.5" y="88.42105263157895"/>
                        </Array>
                    </mxGeometry>
                </mxCell>
                <mxCell id="gTGuWwU5sjEZYZMLUVI3-13" value="ユーザー" style="rounded=0;whiteSpace=wrap;html=1;strokeColor=none;" parent="1" vertex="1">
                    <mxGeometry x="120" y="270" width="90" height="30" as="geometry"/>
                </mxCell>
                <mxCell id="gTGuWwU5sjEZYZMLUVI3-14" value="アクター" style="rounded=0;whiteSpace=wrap;html=1;strokeColor=none;" parent="1" vertex="1">
                    <mxGeometry x="45" y="70" width="140" height="30" as="geometry"/>
                </mxCell>
                <mxCell id="gTGuWwU5sjEZYZMLUVI3-15" value="" style="endArrow=classic;html=1;rounded=0;exitX=0.5;exitY=1;exitDx=0;exitDy=0;entryX=0;entryY=0.5;entryDx=0;entryDy=0;dashed=1;" parent="1" source="gTGuWwU5sjEZYZMLUVI3-14" target="gTGuWwU5sjEZYZMLUVI3-1" edge="1">
                    <mxGeometry width="50" height="50" relative="1" as="geometry">
                        <mxPoint x="340" y="290" as="sourcePoint"/>
                        <mxPoint x="390" y="240" as="targetPoint"/>
                    </mxGeometry>
                </mxCell>
                <mxCell id="gTGuWwU5sjEZYZMLUVI3-16" value="" style="group" parent="1" vertex="1" connectable="0">
                    <mxGeometry x="210" y="60" width="570" height="300" as="geometry"/>
                </mxCell>
                <mxCell id="gTGuWwU5sjEZYZMLUVI3-8" value="&lt;div style=&quot;text-align: center;&quot;&gt;&lt;br&gt;&lt;/div&gt;&lt;div&gt;&lt;/div&gt;" style="rounded=0;whiteSpace=wrap;html=1;align=left;" parent="gTGuWwU5sjEZYZMLUVI3-16" vertex="1">
                    <mxGeometry x="90" width="480" height="300" as="geometry"/>
                </mxCell>
                <mxCell id="gTGuWwU5sjEZYZMLUVI3-7" value="" style="endArrow=none;html=1;rounded=0;" parent="gTGuWwU5sjEZYZMLUVI3-16" edge="1">
                    <mxGeometry width="50" height="50" relative="1" as="geometry">
                        <mxPoint x="180" y="200" as="sourcePoint"/>
                        <mxPoint x="180" y="100" as="targetPoint"/>
                        <Array as="points">
                            <mxPoint y="140"/>
                        </Array>
                    </mxGeometry>
                </mxCell>
                <mxCell id="gTGuWwU5sjEZYZMLUVI3-9" value="学生情報を登録する" style="ellipse;whiteSpace=wrap;html=1;" parent="gTGuWwU5sjEZYZMLUVI3-16" vertex="1">
                    <mxGeometry x="190" y="60" width="280" height="80" as="geometry"/>
                </mxCell>
                <mxCell id="gTGuWwU5sjEZYZMLUVI3-10" value="学術論文を登録する" style="ellipse;whiteSpace=wrap;html=1;" parent="gTGuWwU5sjEZYZMLUVI3-16" vertex="1">
                    <mxGeometry x="190" y="170" width="280" height="80" as="geometry"/>
                </mxCell>
                <mxCell id="gTGuWwU5sjEZYZMLUVI3-11" value="システム内部" style="rounded=0;whiteSpace=wrap;html=1;strokeColor=none;" parent="gTGuWwU5sjEZYZMLUVI3-16" vertex="1">
                    <mxGeometry x="260" y="10" width="170" height="30" as="geometry"/>
                </mxCell>
            </root>
        </mxGraphModel>
    </diagram>
</mxfile>